<svg id="Layer_1" data-name="Layer 1" xmlns="http://www.w3.org/2000/svg" viewBox="0 0 594.61 149.41"><defs><style>.cls-1{fill:#b2e07e;}.cls-2{fill:#333;}</style></defs><title>easyDITA FS</title><path class="cls-1" d="M69.52,75H12c0,17.71,9.53,30.41,27.58,30.41a45.63,45.63,0,0,0,23.23-6.51l4.51,7.68c-.33.5-12.2,8.19-28.58,8.19-23.39,0-37.1-17-37.1-41.28,0-25.9,14.37-42.61,36.6-42.61,18.55,0,31.59,14,31.59,38.77C69.86,70.52,69.52,73.37,69.52,75ZM38.44,39.44c-13.87,0-25.07,10.36-26.07,27.07H59.66C59.66,54.65,54.15,39.44,38.44,39.44Z" transform="translate(-1.67 -1.67)"/><path class="cls-1" d="M130.69,113.14v-6c-.67.34-11.37,7.69-25.57,7.69-15.38,0-25.74-9.86-25.74-24.4,0-25.4,32.42-26.24,46.29-26.24h4.18v-3c0-7.52-.33-13-4-16.87-2.51-2.51-7-4.68-15.21-4.68A43.12,43.12,0,0,0,88.4,46l-4.18-7c.67-.67,11-8.19,27.58-8.19,10.2,0,17,3,21.73,7.68,5.35,5.35,6.35,10.87,6.35,23.07v51.64Zm-.84-40.78h-4.51c-20.56,0-35.6,4.68-35.6,18.22,0,8,5.18,15.38,17.72,15.38,10.36,0,20.22-5.52,22.39-6.52Z" transform="translate(-1.67 -1.67)"/><path class="cls-1" d="M179.32,115.15c-15.21,0-26.24-7.19-26.91-7.86l4.34-7.68c.51.33,10.53,6.68,21.9,6.68,12,0,19.22-5.35,19.22-14,0-10.86-11.7-14-20.06-17.21C166,70.36,155.58,66.51,155.58,52c0-12.87,11.7-21,26.74-21,14.21,0,23.57,6.51,24.24,7.18l-4,7.19c-1.17-.67-9.36-5.68-19.39-5.68-9.36,0-17.21,4.68-17.21,12,0,9.36,8.19,11.53,17.21,15.21,10.86,4.34,25.07,8.86,25.07,24.4C208.23,106.29,197,115.15,179.32,115.15Z" transform="translate(-1.67 -1.67)"/><path class="cls-1" d="M259.7,118.83c-5,13.53-8.86,19.72-14,24.9-4.85,4.84-12.37,7.35-19.72,7.35a37.67,37.67,0,0,1-14.37-2.84l2.67-8.19a32.62,32.62,0,0,0,11.37,2c5.18,0,9.86-1.51,13-4.68,5-5,7.69-11.37,12-22.23l-33.1-82.23h11l27.58,69.36,24.9-69.36h10.37Z" transform="translate(-1.67 -1.67)"/><path class="cls-2" d="M379.7,98.94c-13,13-27.41,14.2-47.81,14.2H306.66V1.67h21.39c22.73,0,39.11,1.33,51.65,13.87,10,10,16,24.73,16,41.28C395.74,74.53,389.89,88.74,379.7,98.94Zm-8-77.39c-9.86-9.86-21.06-11-43.29-11h-11v93.76h15.21c15.71,0,28.75-.66,39.78-11.69,8.36-8.36,12.54-21.73,12.54-36.1C384.88,45.45,382.53,32.42,371.67,21.55Z" transform="translate(-1.67 -1.67)"/><path class="cls-2" d="M412.61,113.14V1.67h10.7V113.14Z" transform="translate(-1.67 -1.67)"/><path class="cls-2" d="M480.8,10.69V113.14H470.1V10.69H436.34v-9h78.22v9Z" transform="translate(-1.67 -1.67)"/><path class="cls-2" d="M584.92,113.14,573.55,81.22H524.92l-11.37,31.92H502.86L543.47,1.67h12l40.78,111.47ZM549.15,12.86,528.09,72h42.29Z" transform="translate(-1.67 -1.67)"/></svg>