<svg xmlns="http://www.w3.org/2000/svg" viewBox="0 0 900 82.67" width="159.2mm" height="14.63mm"><title>Logo Tocco AG</title><path d="M310.16,81.69c0,0.49-.11.57-0.57,0.57h-7.28c-0.46,0-.57-0.08-0.57-0.57V80.22c0-.49.11-0.57,0.57-0.57h1.8V66.53h-2v2.62c0,0.38-.11.46-0.46,0.46H300c-0.38,0-.46-0.08-0.46-0.46V64c0-.38.08-0.46,0.46-0.46h11.81c0.35,0,.46.08,0.46,0.46v5.1c0,0.38-.11.46-0.46,0.46h-1.61c-0.38,0-.46-0.08-0.46-0.46V66.53h-2V79.65h1.8c0.46,0,.57.08,0.57,0.57v1.47" transform="translate(0 -0.06)" fill="#9e2124"/><path d="M338.33,81.69c0,0.49-.08.57-0.54,0.57H326.85c-0.47,0-.57-0.08-0.57-0.57V80.22c0-.49.11-0.57,0.57-0.57h1.39V66.2h-1.39c-0.47,0-.57-0.08-0.57-0.57V64.16c0-.49.11-0.57,0.57-0.57h10.91c0.44,0,.57.05,0.57,0.46v4.15c0,0.49-.14.57-0.57,0.57H336c-0.46,0-.57-0.08-0.57-0.57V66.53h-3.46V71h4.63c0.49,0,.57.08,0.57,0.57v1.8c0,0.49-.11.57-0.57,0.57h-4.63v5.35h3.46V77.41c0-.46.05-0.57,0.57-0.57h1.8c0.49,0,.57.08,0.57,0.57v4.28" transform="translate(0 -0.06)" fill="#9e2124"/><path d="M365.33,81.15c0,0.85-2.43,1.58-4.74,1.58-5,0-7.39-3.11-7.39-9.65,0-6.27,2.43-10,7.34-10,1.91,0,4.58.79,4.58,1.8v3.65c0,0.38-.11.46-0.46,0.46h-2c-0.38,0-.46-0.08-0.46-0.46V66.31a4.35,4.35,0,0,0-1.44-.25c-2.54,0-3.65,1.61-3.65,6.3s0.63,7.42,3.87,7.42a6.45,6.45,0,0,0,1.45-.14V77.19c0-.35.08-0.46,0.46-0.46h2c0.38,0,.46.11,0.46,0.46v4" transform="translate(0 -0.06)" fill="#9e2124"/><path d="M396.14,81.69c0,0.49-.11.57-0.57,0.57h-6.38c-0.46,0-.57-0.08-0.57-0.57V80.22c0-.49.11-0.57,0.57-0.57h1.31V74.08h-5.21v5.56h1.31c0.47,0,.57.08,0.57,0.57v1.47c0,0.49-.11.57-0.57,0.57h-6.38c-0.46,0-.57-0.08-0.57-0.57V80.22c0-.49.11-0.57,0.57-0.57h1.39V66.2h-1.39c-0.46,0-.57-0.08-0.57-0.57V64.16c0-.49.11-0.57,0.57-0.57h6.38c0.47,0,.57.08,0.57,0.57v1.47c0,0.49-.11.57-0.57,0.57h-1.31v4.94h5.21V66.2h-1.31c-0.46,0-.57-0.08-0.57-0.57V64.16c0-.49.11-0.57,0.57-0.57h6.38c0.46,0,.57.08,0.57,0.57v1.47c0,0.49-.11.57-0.57,0.57h-1.39V79.65h1.39c0.46,0,.57.08,0.57,0.57v1.47" transform="translate(0 -0.06)" fill="#9e2124"/><path d="M425.24,81.69c0,0.49-.08.57-0.57,0.57h-1.8a0.53,0.53,0,0,1-.63-0.38l-5-9.3a18.42,18.42,0,0,1-1.61-3.71h-0.05c0,0.9.14,1.75,0.14,3v7.77h1.36c0.46,0,.57.08,0.57,0.57v1.47c0,0.49-.11.57-0.57,0.57h-5.89c-0.46,0-.57-0.08-0.57-0.57V80.22c0-.49.11-0.57,0.57-0.57h1.39V66.2h-1.39c-0.46,0-.57-0.08-0.57-0.57V64.16c0-.49.11-0.57,0.57-0.57h4.2a0.52,0.52,0,0,1,.63.35l4.53,8.45a22,22,0,0,1,1.64,4h0.05c0-.87-0.11-2.67-0.11-3.55V66.2h-1.36c-0.46,0-.57-0.08-0.57-0.57V64.16c0-.49.11-0.57,0.57-0.57h5.89c0.46,0,.57.08,0.57,0.57v1.47c0,0.49-.11.57-0.57,0.57h-1.39V81.69" transform="translate(0 -0.06)" fill="#9e2124"/><path d="M451,72.94c0-4.28-.87-7-2.92-7s-2.92,2.7-2.92,7S446,79.87,448,79.87,451,77.19,451,72.94h0ZM448,82.73c-4.23,0-6.79-3.19-6.79-9.79s2.59-9.82,6.79-9.82,6.79,3.22,6.79,9.82-2.56,9.79-6.79,9.79" transform="translate(0 -0.06)" fill="#9e2124"/><path d="M471.44,66.2H470c-0.46,0-.57-0.08-0.57-0.57V64.16c0-.49.11-0.57,0.57-0.57h6.55c0.46,0,.57.08,0.57,0.57v1.47c0,0.49-.11.57-0.57,0.57h-1.47V79.32h4l0.49-2.1c0.08-.35.11-0.49,0.33-0.49a2.17,2.17,0,0,1,.41.08l1.8,0.38c0.38,0.08.49,0.14,0.49,0.35a1.59,1.59,0,0,1-.05.35l-0.87,3.87a0.48,0.48,0,0,1-.6.49H470c-0.46,0-.57-0.08-0.57-0.57V80.22c0-.49.11-0.57,0.57-0.57h1.39V66.2" transform="translate(0 -0.06)" fill="#9e2124"/><path d="M506.32,72.94c0-4.28-.87-7-2.92-7s-2.92,2.7-2.92,7,0.87,6.93,2.92,6.93,2.92-2.67,2.92-6.93h0Zm-2.92,9.79c-4.23,0-6.79-3.19-6.79-9.79s2.59-9.82,6.79-9.82,6.79,3.22,6.79,9.82-2.56,9.79-6.79,9.79" transform="translate(0 -0.06)" fill="#9e2124"/><path d="M537.84,80.6c0,1.15-3.22,2.13-5.45,2.13-4.8,0-7.31-3.11-7.31-9.71s2.48-9.9,7.31-9.9c2.1,0,5,.76,5,1.88v3.52c0,0.38-.08.46-0.46,0.46h-2c-0.41,0-.46-0.08-0.46-0.46V66.45a6.22,6.22,0,0,0-1.85-.38c-2.78,0-3.68,2.62-3.68,6.76s0.71,7,3.66,7a4.66,4.66,0,0,0,2-.44V75.07h-2c-0.47,0-.57-0.08-0.57-0.57V73c0-.49.11-0.57,0.57-0.57h6.65c0.46,0,.57.08,0.57,0.57v1.47c0,0.49-.11.57-0.57,0.57h-1.34V80.6" transform="translate(0 -0.06)" fill="#9e2124"/><path d="M564.68,81.69c0,0.49-.11.57-0.57,0.57h-7.39c-0.46,0-.57-0.08-0.57-0.57V80.22c0-.49.11-0.57,0.57-0.57h1.85v-5l-4.34-8.4h-0.71c-0.38,0-.46-0.08-0.46-0.46V64c0-.38.08-0.46,0.46-0.46h3.11a0.46,0.46,0,0,1,.6.38l2.13,4.39a14.08,14.08,0,0,1,1.09,3.11h0.05a17.1,17.1,0,0,1,1.09-3.11L563.72,64a0.46,0.46,0,0,1,.6-0.38h3c0.38,0,.46.08,0.46,0.46v1.69c0,0.38-.08.46-0.46,0.46h-0.87l-4.17,8.4v5h1.85c0.46,0,.57.08,0.57,0.57v1.47" transform="translate(0 -0.06)" fill="#9e2124"/><path d="M620.12,81.69c0,0.49-.11.57-0.57,0.57H614c-0.47,0-.57-0.08-0.57-0.57V80.22c0-.49.11-0.57,0.57-0.57h1.2L615,72.45c0-1-.05-3.38-0.05-4.36h-0.05c-0.16,1-.65,3.3-1,4.28l-1.58,5.32a0.47,0.47,0,0,1-.6.46h-1.8a0.47,0.47,0,0,1-.6-0.46l-1.58-5.32c-0.3-1-.79-3.3-1-4.28h-0.06c0,1-.05,3.38-0.05,4.36l-0.19,7.2h1.2c0.46,0,.57.08,0.57,0.57v1.47c0,0.49-.11.57-0.57,0.57h-5.59c-0.46,0-.57-0.08-0.57-0.57V80.22c0-.49.11-0.57,0.57-0.57h1.25l0.57-13.44h-1.31c-0.47,0-.57-0.08-0.57-0.57V64.16c0-.49.11-0.57,0.57-0.57h4.61a0.48,0.48,0,0,1,.6.44L610,70.89a20.34,20.34,0,0,1,.76,3.27h0.06a20.34,20.34,0,0,1,.76-3.27L613.82,64a0.48,0.48,0,0,1,.6-0.44H619c0.47,0,.57.08,0.57,0.57v1.47c0,0.49-.11.57-0.57,0.57h-1.31l0.57,13.44h1.25c0.46,0,.57.08,0.57,0.57v1.47" transform="translate(0 -0.06)" fill="#9e2124"/><path d="M646.57,81.69c0,0.49-.08.57-0.54,0.57H635.09c-0.46,0-.57-0.08-0.57-0.57V80.22c0-.49.11-0.57,0.57-0.57h1.39V66.2h-1.39c-0.46,0-.57-0.08-0.57-0.57V64.16c0-.49.11-0.57,0.57-0.57H646c0.44,0,.57.05,0.57,0.46v4.15c0,0.49-.13.57-0.57,0.57h-1.8c-0.46,0-.57-0.08-0.57-0.57V66.53h-3.46V71h4.63c0.49,0,.57.08,0.57,0.57v1.8c0,0.49-.11.57-0.57,0.57h-4.63v5.35h3.46V77.41c0-.46.05-0.57,0.57-0.57H646c0.49,0,.57.08,0.57,0.57v4.28" transform="translate(0 -0.06)" fill="#9e2124"/><path d="M673.49,81.69c0,0.49-.08.57-0.55,0.57H662c-0.46,0-.57-0.08-0.57-0.57V80.22c0-.49.11-0.57,0.57-0.57h1.39V66.2H662c-0.46,0-.57-0.08-0.57-0.57V64.16c0-.49.11-0.57,0.57-0.57h10.91c0.44,0,.57.05,0.57,0.46v4.15c0,0.49-.14.57-0.57,0.57h-1.8c-0.46,0-.57-0.08-0.57-0.57V66.53h-3.46V71h4.64c0.49,0,.57.08,0.57,0.57v1.8c0,0.49-.11.57-0.57,0.57h-4.64v5.35h3.46V77.41c0-.46.06-0.57,0.57-0.57h1.8c0.49,0,.57.08,0.57,0.57v4.28" transform="translate(0 -0.06)" fill="#9e2124"/><path d="M698.66,81.69c0,0.49-.11.57-0.57,0.57H690.8c-0.47,0-.57-0.08-0.57-0.57V80.22c0-.49.11-0.57,0.57-0.57h1.8V66.53h-2v2.62c0,0.38-.11.46-0.46,0.46h-1.61c-0.38,0-.47-0.08-0.47-0.46V64c0-.38.08-0.46,0.47-0.46h11.81c0.35,0,.46.08,0.46,0.46v5.1c0,0.38-.11.46-0.46,0.46h-1.61c-0.38,0-.46-0.08-0.46-0.46V66.53h-2V79.65h1.8c0.47,0,.57.08,0.57,0.57v1.47" transform="translate(0 -0.06)" fill="#9e2124"/><path d="M722.47,66.42a5,5,0,0,0-1.83-.35c-1.25,0-2.56.49-2.56,2.13,0,2.07,3.19,2.45,5.59,4.23A5.42,5.42,0,0,1,726,77a5.55,5.55,0,0,1-5.89,5.75c-2,0-5.62-.65-5.62-1.85V76.76c0-.35.08-0.46,0.46-0.46h2c0.38,0,.46.08,0.46,0.46v2.48a7.56,7.56,0,0,0,2.56.55,2.23,2.23,0,0,0,2.46-2.51c0-2.43-2.78-2.67-5.56-4.36a4.38,4.38,0,0,1-2.37-4.23c0-3.93,2.83-5.56,6-5.56,1.91,0,4.88.71,4.88,1.8V68.6c0,0.38-.11.46-0.46,0.46h-2c-0.38,0-.46-0.08-0.46-0.46V66.42" transform="translate(0 -0.06)" fill="#9e2124"/><path d="M768.72,66.42a5,5,0,0,0-1.83-.35c-1.25,0-2.56.49-2.56,2.13,0,2.07,3.19,2.45,5.59,4.23A5.43,5.43,0,0,1,772.27,77a5.55,5.55,0,0,1-5.89,5.75c-2,0-5.62-.65-5.62-1.85V76.76c0-.35.08-0.46,0.46-0.46h2c0.38,0,.46.08,0.46,0.46v2.48a7.57,7.57,0,0,0,2.56.55,2.23,2.23,0,0,0,2.46-2.51c0-2.43-2.78-2.67-5.56-4.36a4.38,4.38,0,0,1-2.37-4.23c0-3.93,2.84-5.56,6-5.56,1.91,0,4.88.71,4.88,1.8V68.6a0.37,0.37,0,0,1-.47.46h-2c-0.38,0-.46-0.08-0.46-0.46V66.42" transform="translate(0 -0.06)" fill="#9e2124"/><path d="M793,71.93c1.61,0,3.14-.27,3.14-3,0-2.37-1.44-2.45-2.86-2.45h-1.12v5.48H793Zm1.53,9.76c0,0.49-.11.57-0.57,0.57H787c-0.46,0-.57-0.08-0.57-0.57V80.22c0-.49.11-0.57,0.57-0.57h1.39V66.2H787c-0.46,0-.57-0.08-0.57-0.57V64.16c0-.49.11-0.57,0.57-0.57h6.38c2.21,0,6.35,0,6.35,5.13,0,4.5-3.35,6.08-6.22,6.08h-1.45v4.85h1.8c0.46,0,.57.08,0.57,0.57v1.47" transform="translate(0 -0.06)" fill="#9e2124"/><path d="M821.65,81.69c0,0.49-.11.57-0.57,0.57h-6.46c-0.46,0-.57-0.08-0.57-0.57V80.22c0-.49.11-0.57,0.57-0.57H816V66.2h-1.39c-0.46,0-.57-0.08-0.57-0.57V64.16c0-.49.11-0.57,0.57-0.57h6.46c0.46,0,.57.08,0.57,0.57v1.47c0,0.49-.11.57-0.57,0.57h-1.39V79.65h1.39c0.46,0,.57.08,0.57,0.57v1.47" transform="translate(0 -0.06)" fill="#9e2124"/><path d="M842.65,71.68c1.77,0,3.27-.27,3.27-2.78s-1.56-2.45-3-2.45h-1v5.24h0.71Zm9,10c0,0.49-.11.57-0.57,0.57h-3.49a0.5,0.5,0,0,1-.63-0.38l-3.68-7.34h-1.31v5.1h1.28c0.46,0,.57.08,0.57,0.57v1.47c0,0.49-.11.57-0.57,0.57h-6.35c-0.46,0-.57-0.08-0.57-0.57V80.22c0-.49.11-0.57,0.57-0.57h1.39V66.2h-1.39c-0.46,0-.57-0.08-0.57-0.57V64.16c0-.49.11-0.57,0.57-0.57h6.38c2.1,0,6.35.14,6.35,5.26a5,5,0,0,1-3.11,5l3.3,5.75h1.25c0.46,0,.57.08,0.57,0.57v1.47" transform="translate(0 -0.06)" fill="#9e2124"/><path d="M872.95,81.69c0,0.49-.11.57-0.57,0.57h-6.46c-0.47,0-.57-0.08-0.57-0.57V80.22c0-.49.11-0.57,0.57-0.57h1.39V66.2h-1.39c-0.47,0-.57-0.08-0.57-0.57V64.16c0-.49.11-0.57,0.57-0.57h6.46c0.46,0,.57.08,0.57,0.57v1.47c0,0.49-.11.57-0.57,0.57H871V79.65h1.39c0.46,0,.57.08,0.57,0.57v1.47" transform="translate(0 -0.06)" fill="#9e2124"/><path d="M897.85,81.69c0,0.49-.11.57-0.57,0.57H890c-0.46,0-.57-0.08-0.57-0.57V80.22c0-.49.11-0.57,0.57-0.57h1.8V66.53h-2v2.62c0,0.38-.11.46-0.46,0.46h-1.61c-0.38,0-.46-0.08-0.46-0.46V64c0-.38.08-0.46,0.46-0.46h11.81c0.35,0,.46.08,0.46,0.46v5.1c0,0.38-.11.46-0.46,0.46h-1.61c-0.38,0-.47-0.08-0.47-0.46V66.53h-2V79.65h1.8c0.46,0,.57.08,0.57,0.57v1.47" transform="translate(0 -0.06)" fill="#9e2124"/><path d="M117.19,26.78A7.75,7.75,0,1,1,124.94,19a7.74,7.74,0,0,1-7.75,7.74h0Zm0-26.71a19,19,0,1,0,19,19,19,19,0,0,0-19-19" transform="translate(0 -0.06)" fill="#9e2124"/><path d="M189.31,22.52a7.74,7.74,0,1,1,0-7H201a19,19,0,1,0,0,7H189.31" transform="translate(0 -0.06)" fill="#9e2124"/><path d="M376.23,26.78A7.75,7.75,0,1,1,384,19a7.74,7.74,0,0,1-7.75,7.74h0Zm0-26.71a19,19,0,1,0,19,19,19,19,0,0,0-19-19" transform="translate(0 -0.06)" fill="#9e2124"/><path d="M230.38,22.52a7.74,7.74,0,1,1,0-7H242.1a19,19,0,1,0,0,7H230.38" transform="translate(0 -0.06)" fill="#9e2124"/><polyline points="36.37 0.57 0 0.57 0 11.79 12.57 11.79 12.57 37.22 23.8 37.22 23.8 11.79 36.37 11.79 36.37 0.57" fill="#9e2124"/></svg>


